<?xml version="1.0" standalone="no"?>
<!DOCTYPE svg PUBLIC "-//W3C//DTD SVG 20010904//EN"
 "http://www.w3.org/TR/2001/REC-SVG-20010904/DTD/svg10.dtd">
<svg version="1.0" xmlns="http://www.w3.org/2000/svg"
 width="512.000000pt" height="512.000000pt" viewBox="0 0 512.000000 512.000000"
 preserveAspectRatio="xMidYMid meet">

<g transform="translate(0.000000,512.000000) scale(0.100000,-0.100000)"
fill="#000000" stroke="none">
<path d="M2098 4412 c-444 -257 -804 -470 -800 -473 14 -14 357 -211 367 -212
6 0 371 208 813 463 630 364 800 466 790 475 -10 9 -326 195 -358 210 -3 2
-368 -207 -812 -463z"/>
<path d="M2516 4096 l-798 -461 5 -1688 c3 -929 7 -1691 10 -1694 3 -3 488
274 1078 615 l1073 619 -3 1374 c-1 756 -4 1376 -6 1378 -2 2 -98 -51 -212
-117 -287 -165 -269 -157 -299 -137 l-24 15 0 280 c0 218 -3 280 -12 279 -7
-1 -372 -209 -812 -463z m623 -30 c7 -8 11 -27 9 -42 -3 -24 -59 -59 -581
-360 -318 -184 -586 -334 -597 -334 -11 0 -27 11 -36 25 -14 22 -15 28 -2 47
18 27 1145 678 1174 678 12 0 27 -6 33 -14z m533 -213 c27 -24 22 -49 -14 -76
-18 -13 -256 -152 -528 -309 -272 -157 -640 -369 -818 -472 -177 -102 -331
-186 -342 -186 -11 0 -27 11 -36 25 -14 22 -15 28 -2 47 16 25 1674 986 1702
987 11 1 28 -6 38 -16z m0 -520 c27 -24 22 -49 -14 -76 -66 -49 -1668 -967
-1688 -967 -11 0 -27 11 -36 25 -14 22 -15 28 -2 46 16 25 1674 987 1702 988
11 1 28 -6 38 -16z m0 -520 c27 -24 22 -49 -14 -76 -18 -14 -224 -135 -458
-269 -234 -135 -602 -347 -817 -472 -216 -124 -401 -226 -411 -226 -11 0 -27
9 -38 21 -17 18 -17 23 -4 46 10 17 273 174 850 508 459 266 844 484 854 484
11 1 28 -6 38 -16z m0 -520 c24 -22 23 -45 -4 -70 -13 -11 -144 -89 -293 -175
-148 -85 -521 -300 -827 -477 -306 -176 -565 -321 -576 -321 -10 0 -27 9 -38
21 -17 18 -17 23 -4 46 10 17 274 175 850 508 459 266 844 484 854 484 11 1
28 -6 38 -16z m0 -520 c24 -22 23 -45 -4 -70 -13 -11 -203 -123 -423 -250
-220 -127 -592 -341 -827 -477 -235 -135 -435 -246 -446 -246 -10 0 -27 9 -38
21 -17 18 -17 23 -4 46 10 17 278 177 850 508 459 266 844 483 854 484 11 1
28 -6 38 -16z"/>
<path d="M3440 4340 c0 -121 3 -220 6 -220 17 0 373 213 369 220 -5 9 -360
220 -369 220 -3 0 -6 -99 -6 -220z"/>
<path d="M1240 2168 c0 -1316 3 -1688 13 -1701 13 -17 358 -220 364 -214 2 2
3 762 3 1688 0 1326 -3 1686 -13 1695 -6 6 -77 49 -157 94 -80 46 -160 92
-178 103 l-32 19 0 -1684z"/>
</g>
</svg>
